<?xml version="1.0" encoding="utf-8"?>
<!-- Generator: Adobe Illustrator 23.0.1, SVG Export Plug-In . SVG Version: 6.00 Build 0)  -->
<svg version="1.1" xmlns="http://www.w3.org/2000/svg" xmlns:xlink="http://www.w3.org/1999/xlink" x="0px" y="0px"
	 viewBox="0 0 378 200" style="enable-background:new 0 0 378 200;" xml:space="preserve">
<style type="text/css">
	.st0{fill:#FF0066;}
</style>
<g id="lila">
	<path class="st0" d="M119.3,81.3c3.3-20.9,22.5-41.9,47.1-49.1C191,25,221,31.7,236.3,49.6s16,46.7,7.6,70.7s-25.7,43-44.3,46.1
		c-18.7,3.1-38.7-9.9-54.9-26.7C128.4,122.9,115.9,102.2,119.3,81.3z"/>
	<path class="st0" d="M299.7,33.5c5.1-10.4,17-17.1,27.2-15.6c10.2,1.6,18.8,11.4,20.2,21.2c1.4,9.8-4.4,19.7-13.7,25.2
		c-9.4,5.4-22.3,6.5-29.7,0C296.3,58,294.6,43.9,299.7,33.5z"/>
	<path class="st0" d="M22.2,39.8c3.1,1.6,5.1,5.3,4.5,8.4c-0.6,3.1-3.6,5.6-6.6,6c-3,0.3-6-1.5-7.6-4.4c-1.6-2.9-1.8-6.8,0.2-9
		C14.8,38.6,19.1,38.2,22.2,39.8z"/>
	<path class="st0" d="M51.8,166.9c-5.9-11-6.1-25.8,0.5-31.7s19.9-3.2,29.3,2.4c9.4,5.6,15,13.8,14.3,23.4
		c-0.7,9.6-7.7,20.6-17,22.4C69.5,185.3,57.7,177.9,51.8,166.9z"/>
	<path class="st0" d="M254.6,215.1c-8.8-8.9-13.2-22.9-8.6-30.5s18.1-8.7,28.8-6.1c10.6,2.6,18.3,8.9,20.4,18.3
		c2.1,9.4-1.4,22-9.9,26.4C276.8,227.5,263.5,223.9,254.6,215.1z"/>
	<path class="st0" d="M38.7-8.2C50.2-3.3,59.5,8.2,58,16.9S44.4,31.8,33.6,33.3c-10.8,1.5-20.3-1.5-25.7-9.4C2.4,15.9,1,3,7.2-4.3
		C13.4-11.6,27.2-13.1,38.7-8.2z"/>
	<path class="st0" d="M305.5,90c-3.6-3.1-5.6-8.3-4.1-11.3c1.5-3,6.6-3.8,10.7-3.1c4.1,0.7,7.2,2.8,8.2,6.3c1.1,3.5,0.1,8.3-3,10.2
		C314.3,94,309.1,93,305.5,90z"/>
</g>
<g id="Capa_2">
</g>
</svg>
