<?xml version="1.0" encoding="utf-8"?>
<!-- Generator: Adobe Illustrator 23.0.1, SVG Export Plug-In . SVG Version: 6.00 Build 0)  -->
<svg version="1.1" xmlns="http://www.w3.org/2000/svg" xmlns:xlink="http://www.w3.org/1999/xlink" x="0px" y="0px"
	 viewBox="0 0 378 200" style="enable-background:new 0 0 378 200;" xml:space="preserve">
<style type="text/css">
	.st0{fill:#FA4D56;}
</style>
<g id="lila">
	<path class="st0" d="M217.5,28.3c19.4,8.3,35.1,32.1,36.1,57.7c0.9,25.6-13,53-34.1,63.5c-21,10.5-49.2,4-70.4-9.9
		c-21.2-14-35.4-35.5-33.8-54.3c1.6-18.9,19.1-35.1,39.3-46.7C174.9,26.9,198,19.9,217.5,28.3z"/>
	<path class="st0" d="M344.5,49.1c-2.3,11.3-12.2,20.8-22.5,21.8s-21-6.4-24.8-15.6c-3.8-9.2-0.6-20.2,7.1-27.8
		c7.7-7.6,20-11.8,28.8-7.3C341.8,24.6,346.9,37.7,344.5,49.1z"/>
	<path class="st0" d="M24,51.3c-2.4,2.5-6.5,3.4-9.3,1.9s-4.4-5.1-3.8-8.1c0.5-3,3.1-5.3,6.3-6c3.2-0.7,7.1,0.2,8.6,2.8
		C27.3,44.6,26.5,48.8,24,51.3z"/>
	<path class="st0" d="M89.7,143.4c8.2,9.5,11.6,23.8,6.4,31.1c-5.1,7.3-18.7,7.4-29.1,4.1c-10.4-3.4-17.7-10.2-19.1-19.7
		c-1.4-9.6,3-21.8,11.7-25.6C68.4,129.4,81.4,134,89.7,143.4z"/>
	<path class="st0" d="M274,177.7c12.5,0.9,25,8.7,26.5,17.4c1.5,8.8-8,18.5-17.7,23.5c-9.7,5-19.7,5.3-27.4-0.5
		c-7.8-5.8-13.3-17.5-9.8-26.4C249,182.8,261.5,176.9,274,177.7z"/>
	<path class="st0" d="M37.3-8.8c11.8,4.2,21.8,15,21,23.8S45.7,30.7,35,33c-10.7,2.2-20.4-0.1-26.3-7.7c-6-7.6-8.2-20.4-2.5-28.1
		C11.9-10.5,25.5-13,37.3-8.8z"/>
	<path class="st0" d="M317.2,77.7c3.6,3.1,5.6,8.3,4.1,11.3s-6.6,3.8-10.7,3.1c-4.1-0.7-7.2-2.9-8.2-6.3c-1-3.5-0.1-8.3,3-10.2
		C308.5,73.6,313.7,74.6,317.2,77.7z"/>
</g>
<g id="Capa_2">
</g>
</svg>
