<?xml version="1.0" encoding="utf-8"?>
<!-- Generator: Adobe Illustrator 23.0.1, SVG Export Plug-In . SVG Version: 6.00 Build 0)  -->
<svg version="1.1" xmlns="http://www.w3.org/2000/svg" xmlns:xlink="http://www.w3.org/1999/xlink" x="0px" y="0px"
	 viewBox="0 0 378 200" style="enable-background:new 0 0 378 200;" xml:space="preserve">
<style type="text/css">
	.st0{fill:#08BDBA;}
</style>
<g id="lila">
	<path class="st0" d="M147.8,35.6c17-12.5,45.5-14,68-1.7c22.5,12.2,39,38.1,37.4,61.6c-1.6,23.5-21.5,44.4-44.3,55.6
		s-48.5,12.4-63.9,1.5c-15.5-11-20.6-34.3-20.2-57.6C124.9,71.6,130.6,48.1,147.8,35.6z"/>
	<path class="st0" d="M313.8,21.3c11-3.6,24.1,0.3,30.1,8.8s4.9,21.4-1.2,29.3C336.6,67.2,325.5,70,315,67
		c-10.4-3-20.2-11.5-20.6-21.4C293.9,35.9,302.8,24.9,313.8,21.3z"/>
	<path class="st0" d="M25.7,43.9c1.2,3.3,0.1,7.3-2.5,9.2s-6.5,1.6-8.9-0.2c-2.4-1.8-3.3-5.2-2.5-8.4c0.8-3.2,3.4-6.2,6.4-6.4
		C21.1,37.9,24.5,40.5,25.7,43.9z"/>
	<path class="st0" d="M57,140.6c8.9-8.8,22.9-13.2,30.5-8.6c7.6,4.6,8.7,18.1,6.1,28.8c-2.7,10.6-8.9,18.3-18.3,20.4
		c-9.4,2.1-22-1.5-26.4-9.9C44.5,162.8,48.1,149.5,57,140.6z"/>
	<path class="st0" d="M248.8,199.9c-0.6-12.5,5.7-25.8,14.2-28.4c8.5-2.5,19.3,5.8,25.4,14.8c6.1,9.1,7.5,18.9,2.7,27.3
		c-4.8,8.4-15.9,15.3-25.1,12.8C256.8,224.1,249.4,212.4,248.8,199.9z"/>
	<path class="st0" d="M45.2-3.5c9,8.7,13.7,22.6,9.2,30.3S36.4,36,25.8,33.6C15.1,31.2,7.2,25.1,5,15.7c-2.3-9.4,1-22,9.3-26.6
		C22.7-15.5,36.1-12.1,45.2-3.5z"/>
	<path class="st0" d="M303.3,81.3c1.2-4.6,4.9-8.7,8.2-8.7c3.4,0,6.3,4.2,7.6,8.1c1.2,4,0.7,7.7-2,10.2c-2.7,2.5-7.4,3.8-10.5,1.9
		C303.5,91,302.1,85.9,303.3,81.3z"/>
</g>
<g id="Capa_2">
</g>
</svg>
