<?xml version="1.0" encoding="utf-8"?>
<!-- Generator: Adobe Illustrator 23.0.1, SVG Export Plug-In . SVG Version: 6.00 Build 0)  -->
<svg version="1.1" xmlns="http://www.w3.org/2000/svg" xmlns:xlink="http://www.w3.org/1999/xlink" x="0px" y="0px"
	 viewBox="0 0 378 200" style="enable-background:new 0 0 378 200;" xml:space="preserve">
<style type="text/css">
	.st0{fill:#8A3FFC;}
</style>
<g id="lila">
	<path class="st0" d="M245.6,50.7c12.8,16.8,14.8,45.2,3,68c-11.8,22.7-37.4,39.7-60.9,38.5c-23.5-1.2-44.8-20.7-56.4-43.3
		C119.7,91.3,118,65.6,128.6,50c10.7-15.7,33.9-21.2,57.2-21.3C209.2,28.5,232.8,33.8,245.6,50.7z"/>
	<path class="st0" d="M341.7,56.3c-5.9,9.9-18.3,15.7-28.4,13.3c-10.1-2.4-17.8-12.8-18.5-22.8c-0.6-9.9,5.9-19.3,15.7-24
		c9.8-4.7,22.8-4.7,29.6,2.4C347,32.3,347.6,46.4,341.7,56.3z"/>
	<path class="st0" d="M25,50c-1.8,3-5.6,4.8-8.6,4.1s-5.4-3.9-5.6-6.9c-0.2-3,1.8-5.9,4.8-7.3c3-1.4,6.9-1.4,9,0.7
		C26.6,42.6,26.8,46.9,25,50z"/>
	<path class="st0" d="M93.6,151.1c4.1,11.8,1.8,26.4-5.7,31.2c-7.5,4.8-20.1-0.1-28.5-7.1c-8.4-7-12.6-16.1-10.3-25.4
		c2.3-9.4,11-19.1,20.5-19.4C79.1,130.1,89.5,139.2,93.6,151.1z"/>
	<path class="st0" d="M283.1,180.9c11,6.1,19,18.4,16.7,27c-2.3,8.6-15,13.4-25.9,13.9c-10.9,0.4-20.1-3.5-24.7-11.9
		c-4.6-8.5-4.7-21.5,2.2-28.1C258.3,175.1,272.1,174.9,283.1,180.9z"/>
	<path class="st0" d="M40.7-7.1c11,6.1,19,18.4,16.7,27s-15,13.4-25.9,13.9c-10.9,0.4-20.1-3.5-24.7-11.9C2.1,13.3,2.1,0.2,8.9-6.3
		C15.9-13,29.7-13.2,40.7-7.1z"/>
	<path class="st0" d="M319.5,81.5c1.5,4.5,0.7,10-2.2,11.8c-2.8,1.8-7.6-0.1-10.8-2.7c-3.2-2.7-4.7-6.1-3.9-9.6
		c0.9-3.6,4.1-7.2,7.7-7.3C314.1,73.5,318,77,319.5,81.5z"/>
</g>
<g id="Capa_2">
</g>
</svg>
